<mxfile host="app.diagrams.net" modified="2024-05-21T17:07:35.914Z" agent="Mozilla/5.0 (Windows NT 10.0; Win64; x64) AppleWebKit/537.36 (KHTML, like Gecko) Chrome/123.0.0.0 Safari/537.36 OPR/109.0.0.0" etag="QvNeQh8wEYNBE9u_y8FD" version="24.4.4" type="github">
  <diagram id="C5RBs43oDa-KdzZeNtuy" name="Page-1">
    <mxGraphModel dx="1079" dy="464" grid="1" gridSize="10" guides="1" tooltips="1" connect="1" arrows="1" fold="1" page="1" pageScale="1" pageWidth="827" pageHeight="1169" math="0" shadow="0">
      <root>
        <mxCell id="WIyWlLk6GJQsqaUBKTNV-0" />
        <mxCell id="WIyWlLk6GJQsqaUBKTNV-1" parent="WIyWlLk6GJQsqaUBKTNV-0" />
        <mxCell id="du9I8prgwWOuaD7i2nQR-0" value="Clientes" style="swimlane;fontStyle=1;align=center;verticalAlign=top;childLayout=stackLayout;horizontal=1;startSize=26;horizontalStack=0;resizeParent=1;resizeParentMax=0;resizeLast=0;collapsible=1;marginBottom=0;whiteSpace=wrap;html=1;" vertex="1" parent="WIyWlLk6GJQsqaUBKTNV-1">
          <mxGeometry x="60" y="100" width="280" height="124" as="geometry" />
        </mxCell>
        <mxCell id="du9I8prgwWOuaD7i2nQR-2" value="" style="line;strokeWidth=1;fillColor=none;align=left;verticalAlign=middle;spacingTop=-1;spacingLeft=3;spacingRight=3;rotatable=0;labelPosition=right;points=[];portConstraint=eastwest;strokeColor=inherit;" vertex="1" parent="du9I8prgwWOuaD7i2nQR-0">
          <mxGeometry y="26" width="280" height="8" as="geometry" />
        </mxCell>
        <mxCell id="du9I8prgwWOuaD7i2nQR-3" value="# Crear_cliente(self, cedula, nom, tel)&lt;div&gt;# modif_cliente(self,cedula, new_:nom, new_tel)&lt;/div&gt;&lt;div&gt;# elim_cliente(self,cedula)&lt;/div&gt;&lt;div&gt;# buscar_cliente(self,cedula)&lt;/div&gt;" style="text;strokeColor=none;fillColor=none;align=left;verticalAlign=top;spacingLeft=4;spacingRight=4;overflow=hidden;rotatable=0;points=[[0,0.5],[1,0.5]];portConstraint=eastwest;whiteSpace=wrap;html=1;" vertex="1" parent="du9I8prgwWOuaD7i2nQR-0">
          <mxGeometry y="34" width="280" height="90" as="geometry" />
        </mxCell>
        <mxCell id="du9I8prgwWOuaD7i2nQR-4" value="Productos" style="swimlane;fontStyle=1;align=center;verticalAlign=top;childLayout=stackLayout;horizontal=1;startSize=26;horizontalStack=0;resizeParent=1;resizeParentMax=0;resizeLast=0;collapsible=1;marginBottom=0;whiteSpace=wrap;html=1;" vertex="1" parent="WIyWlLk6GJQsqaUBKTNV-1">
          <mxGeometry x="360" y="100" width="280" height="124" as="geometry" />
        </mxCell>
        <mxCell id="du9I8prgwWOuaD7i2nQR-5" value="" style="line;strokeWidth=1;fillColor=none;align=left;verticalAlign=middle;spacingTop=-1;spacingLeft=3;spacingRight=3;rotatable=0;labelPosition=right;points=[];portConstraint=eastwest;strokeColor=inherit;" vertex="1" parent="du9I8prgwWOuaD7i2nQR-4">
          <mxGeometry y="26" width="280" height="8" as="geometry" />
        </mxCell>
        <mxCell id="du9I8prgwWOuaD7i2nQR-6" value="# Crear_prod(self, ref, cod, marca, precio_ad, precio_vent, stock)&lt;div&gt;# modif_prod(self, cod, new_marca, new ...)&lt;/div&gt;&lt;div&gt;# elim_prod(self,cedula)&lt;/div&gt;&lt;div&gt;# buscar prod(self, cod)&lt;/div&gt;" style="text;strokeColor=none;fillColor=none;align=left;verticalAlign=top;spacingLeft=4;spacingRight=4;overflow=hidden;rotatable=0;points=[[0,0.5],[1,0.5]];portConstraint=eastwest;whiteSpace=wrap;html=1;" vertex="1" parent="du9I8prgwWOuaD7i2nQR-4">
          <mxGeometry y="34" width="280" height="90" as="geometry" />
        </mxCell>
        <mxCell id="du9I8prgwWOuaD7i2nQR-7" value="Servicios" style="swimlane;fontStyle=1;align=center;verticalAlign=top;childLayout=stackLayout;horizontal=1;startSize=26;horizontalStack=0;resizeParent=1;resizeParentMax=0;resizeLast=0;collapsible=1;marginBottom=0;whiteSpace=wrap;html=1;" vertex="1" parent="WIyWlLk6GJQsqaUBKTNV-1">
          <mxGeometry x="680" y="100" width="280" height="124" as="geometry" />
        </mxCell>
        <mxCell id="du9I8prgwWOuaD7i2nQR-8" value="" style="line;strokeWidth=1;fillColor=none;align=left;verticalAlign=middle;spacingTop=-1;spacingLeft=3;spacingRight=3;rotatable=0;labelPosition=right;points=[];portConstraint=eastwest;strokeColor=inherit;" vertex="1" parent="du9I8prgwWOuaD7i2nQR-7">
          <mxGeometry y="26" width="280" height="8" as="geometry" />
        </mxCell>
        <mxCell id="du9I8prgwWOuaD7i2nQR-9" value="# Crear_cliente(self, cedula, nom, tel)&lt;div&gt;# modif_cliente(self,cedula, new_:nom, new_tel)&lt;/div&gt;&lt;div&gt;#elim_cliente(self,cedula)&lt;/div&gt;" style="text;strokeColor=none;fillColor=none;align=left;verticalAlign=top;spacingLeft=4;spacingRight=4;overflow=hidden;rotatable=0;points=[[0,0.5],[1,0.5]];portConstraint=eastwest;whiteSpace=wrap;html=1;" vertex="1" parent="du9I8prgwWOuaD7i2nQR-7">
          <mxGeometry y="34" width="280" height="90" as="geometry" />
        </mxCell>
        <mxCell id="du9I8prgwWOuaD7i2nQR-10" value="Ventas" style="swimlane;fontStyle=1;align=center;verticalAlign=top;childLayout=stackLayout;horizontal=1;startSize=26;horizontalStack=0;resizeParent=1;resizeParentMax=0;resizeLast=0;collapsible=1;marginBottom=0;whiteSpace=wrap;html=1;" vertex="1" parent="WIyWlLk6GJQsqaUBKTNV-1">
          <mxGeometry x="1000" y="100" width="280" height="124" as="geometry" />
        </mxCell>
        <mxCell id="du9I8prgwWOuaD7i2nQR-11" value="" style="line;strokeWidth=1;fillColor=none;align=left;verticalAlign=middle;spacingTop=-1;spacingLeft=3;spacingRight=3;rotatable=0;labelPosition=right;points=[];portConstraint=eastwest;strokeColor=inherit;" vertex="1" parent="du9I8prgwWOuaD7i2nQR-10">
          <mxGeometry y="26" width="280" height="8" as="geometry" />
        </mxCell>
        <mxCell id="du9I8prgwWOuaD7i2nQR-12" value="# Crear_cliente(self, cedula, nom, tel)&lt;div&gt;# modif_cliente(self,cedula, new_:nom, new_tel)&lt;/div&gt;&lt;div&gt;# elim_cliente(self,cedula)&lt;/div&gt;" style="text;strokeColor=none;fillColor=none;align=left;verticalAlign=top;spacingLeft=4;spacingRight=4;overflow=hidden;rotatable=0;points=[[0,0.5],[1,0.5]];portConstraint=eastwest;whiteSpace=wrap;html=1;" vertex="1" parent="du9I8prgwWOuaD7i2nQR-10">
          <mxGeometry y="34" width="280" height="90" as="geometry" />
        </mxCell>
        <mxCell id="du9I8prgwWOuaD7i2nQR-13" value="Reportes" style="swimlane;fontStyle=1;align=center;verticalAlign=top;childLayout=stackLayout;horizontal=1;startSize=26;horizontalStack=0;resizeParent=1;resizeParentMax=0;resizeLast=0;collapsible=1;marginBottom=0;whiteSpace=wrap;html=1;" vertex="1" parent="WIyWlLk6GJQsqaUBKTNV-1">
          <mxGeometry x="1330" y="100" width="280" height="140" as="geometry" />
        </mxCell>
        <mxCell id="du9I8prgwWOuaD7i2nQR-14" value="" style="line;strokeWidth=1;fillColor=none;align=left;verticalAlign=middle;spacingTop=-1;spacingLeft=3;spacingRight=3;rotatable=0;labelPosition=right;points=[];portConstraint=eastwest;strokeColor=inherit;" vertex="1" parent="du9I8prgwWOuaD7i2nQR-13">
          <mxGeometry y="26" width="280" height="8" as="geometry" />
        </mxCell>
        <mxCell id="du9I8prgwWOuaD7i2nQR-15" value="# Crear_ventas()&lt;div&gt;# Crear_servicios()&lt;/div&gt;&lt;div&gt;# Crear_productos()&lt;/div&gt;&lt;div&gt;# Crear_Personalizado_ventas()&lt;/div&gt;&lt;div&gt;# Crear_Personalizado_servicio()&lt;br&gt;&lt;/div&gt;&lt;div&gt;# Crear_Personalizado_productos()&lt;br&gt;&lt;/div&gt;&lt;div&gt;&lt;br&gt;&lt;/div&gt;" style="text;strokeColor=none;fillColor=none;align=left;verticalAlign=top;spacingLeft=4;spacingRight=4;overflow=hidden;rotatable=0;points=[[0,0.5],[1,0.5]];portConstraint=eastwest;whiteSpace=wrap;html=1;" vertex="1" parent="du9I8prgwWOuaD7i2nQR-13">
          <mxGeometry y="34" width="280" height="106" as="geometry" />
        </mxCell>
        <mxCell id="du9I8prgwWOuaD7i2nQR-16" value="Caja" style="swimlane;fontStyle=1;align=center;verticalAlign=top;childLayout=stackLayout;horizontal=1;startSize=26;horizontalStack=0;resizeParent=1;resizeParentMax=0;resizeLast=0;collapsible=1;marginBottom=0;whiteSpace=wrap;html=1;" vertex="1" parent="WIyWlLk6GJQsqaUBKTNV-1">
          <mxGeometry x="320" y="380" width="280" height="124" as="geometry" />
        </mxCell>
        <mxCell id="du9I8prgwWOuaD7i2nQR-17" value="" style="line;strokeWidth=1;fillColor=none;align=left;verticalAlign=middle;spacingTop=-1;spacingLeft=3;spacingRight=3;rotatable=0;labelPosition=right;points=[];portConstraint=eastwest;strokeColor=inherit;" vertex="1" parent="du9I8prgwWOuaD7i2nQR-16">
          <mxGeometry y="26" width="280" height="8" as="geometry" />
        </mxCell>
        <mxCell id="du9I8prgwWOuaD7i2nQR-18" value="+ Crear_cliente(self, cedula, nom, tel)&lt;div&gt;# modif_cliente(self,cedula, new_:nom, new_tel)&lt;/div&gt;&lt;div&gt;#elim_cliente(self,cedula)&lt;/div&gt;" style="text;strokeColor=none;fillColor=none;align=left;verticalAlign=top;spacingLeft=4;spacingRight=4;overflow=hidden;rotatable=0;points=[[0,0.5],[1,0.5]];portConstraint=eastwest;whiteSpace=wrap;html=1;" vertex="1" parent="du9I8prgwWOuaD7i2nQR-16">
          <mxGeometry y="34" width="280" height="90" as="geometry" />
        </mxCell>
        <mxCell id="du9I8prgwWOuaD7i2nQR-19" value="" style="endArrow=block;endSize=10;endFill=0;shadow=0;strokeWidth=1;rounded=0;curved=0;edgeStyle=elbowEdgeStyle;elbow=vertical;exitX=0.5;exitY=0;exitDx=0;exitDy=0;entryX=0.493;entryY=1.011;entryDx=0;entryDy=0;entryPerimeter=0;" edge="1" parent="WIyWlLk6GJQsqaUBKTNV-1" source="du9I8prgwWOuaD7i2nQR-16" target="du9I8prgwWOuaD7i2nQR-3">
          <mxGeometry width="160" relative="1" as="geometry">
            <mxPoint x="200" y="360" as="sourcePoint" />
            <mxPoint x="300" y="258" as="targetPoint" />
            <Array as="points">
              <mxPoint x="330" y="310" />
            </Array>
          </mxGeometry>
        </mxCell>
        <mxCell id="du9I8prgwWOuaD7i2nQR-20" value="" style="endArrow=block;endSize=10;endFill=0;shadow=0;strokeWidth=1;rounded=0;curved=0;edgeStyle=elbowEdgeStyle;elbow=vertical;entryX=0.493;entryY=1.044;entryDx=0;entryDy=0;entryPerimeter=0;exitX=0.5;exitY=0;exitDx=0;exitDy=0;" edge="1" parent="WIyWlLk6GJQsqaUBKTNV-1" source="du9I8prgwWOuaD7i2nQR-16" target="du9I8prgwWOuaD7i2nQR-6">
          <mxGeometry width="160" relative="1" as="geometry">
            <mxPoint x="550" y="330" as="sourcePoint" />
            <mxPoint x="208" y="235" as="targetPoint" />
            <Array as="points">
              <mxPoint x="480" y="310" />
            </Array>
          </mxGeometry>
        </mxCell>
        <mxCell id="du9I8prgwWOuaD7i2nQR-21" value="Soporte" style="swimlane;fontStyle=1;align=center;verticalAlign=top;childLayout=stackLayout;horizontal=1;startSize=26;horizontalStack=0;resizeParent=1;resizeParentMax=0;resizeLast=0;collapsible=1;marginBottom=0;whiteSpace=wrap;html=1;" vertex="1" parent="WIyWlLk6GJQsqaUBKTNV-1">
          <mxGeometry x="820" y="380" width="280" height="124" as="geometry" />
        </mxCell>
        <mxCell id="du9I8prgwWOuaD7i2nQR-22" value="" style="line;strokeWidth=1;fillColor=none;align=left;verticalAlign=middle;spacingTop=-1;spacingLeft=3;spacingRight=3;rotatable=0;labelPosition=right;points=[];portConstraint=eastwest;strokeColor=inherit;" vertex="1" parent="du9I8prgwWOuaD7i2nQR-21">
          <mxGeometry y="26" width="280" height="8" as="geometry" />
        </mxCell>
        <mxCell id="du9I8prgwWOuaD7i2nQR-23" value="+ Crear_cliente(self, cedula, nom, tel)&lt;div&gt;# modif_cliente(self,cedula, new_:nom, new_tel)&lt;/div&gt;&lt;div&gt;#elim_cliente(self,cedula)&lt;/div&gt;" style="text;strokeColor=none;fillColor=none;align=left;verticalAlign=top;spacingLeft=4;spacingRight=4;overflow=hidden;rotatable=0;points=[[0,0.5],[1,0.5]];portConstraint=eastwest;whiteSpace=wrap;html=1;" vertex="1" parent="du9I8prgwWOuaD7i2nQR-21">
          <mxGeometry y="34" width="280" height="90" as="geometry" />
        </mxCell>
        <mxCell id="du9I8prgwWOuaD7i2nQR-24" value="Admin" style="swimlane;fontStyle=1;align=center;verticalAlign=top;childLayout=stackLayout;horizontal=1;startSize=26;horizontalStack=0;resizeParent=1;resizeParentMax=0;resizeLast=0;collapsible=1;marginBottom=0;whiteSpace=wrap;html=1;" vertex="1" parent="WIyWlLk6GJQsqaUBKTNV-1">
          <mxGeometry x="1280" y="380" width="280" height="124" as="geometry" />
        </mxCell>
        <mxCell id="du9I8prgwWOuaD7i2nQR-25" value="" style="line;strokeWidth=1;fillColor=none;align=left;verticalAlign=middle;spacingTop=-1;spacingLeft=3;spacingRight=3;rotatable=0;labelPosition=right;points=[];portConstraint=eastwest;strokeColor=inherit;" vertex="1" parent="du9I8prgwWOuaD7i2nQR-24">
          <mxGeometry y="26" width="280" height="8" as="geometry" />
        </mxCell>
        <mxCell id="du9I8prgwWOuaD7i2nQR-26" value="+ Crear_cliente(self, cedula, nom, tel)&lt;div&gt;# modif_cliente(self,cedula, new_:nom, new_tel)&lt;/div&gt;&lt;div&gt;#elim_cliente(self,cedula)&lt;/div&gt;" style="text;strokeColor=none;fillColor=none;align=left;verticalAlign=top;spacingLeft=4;spacingRight=4;overflow=hidden;rotatable=0;points=[[0,0.5],[1,0.5]];portConstraint=eastwest;whiteSpace=wrap;html=1;" vertex="1" parent="du9I8prgwWOuaD7i2nQR-24">
          <mxGeometry y="34" width="280" height="90" as="geometry" />
        </mxCell>
        <mxCell id="du9I8prgwWOuaD7i2nQR-27" value="" style="endArrow=block;endSize=10;endFill=0;shadow=0;strokeWidth=1;rounded=0;curved=0;edgeStyle=elbowEdgeStyle;elbow=vertical;exitX=0.5;exitY=0;exitDx=0;exitDy=0;" edge="1" parent="WIyWlLk6GJQsqaUBKTNV-1" source="du9I8prgwWOuaD7i2nQR-16" target="du9I8prgwWOuaD7i2nQR-15">
          <mxGeometry width="160" relative="1" as="geometry">
            <mxPoint x="860" y="380" as="sourcePoint" />
            <mxPoint x="898" y="228" as="targetPoint" />
            <Array as="points">
              <mxPoint x="880" y="310" />
            </Array>
          </mxGeometry>
        </mxCell>
        <mxCell id="du9I8prgwWOuaD7i2nQR-28" value="" style="endArrow=block;endSize=10;endFill=0;shadow=0;strokeWidth=1;rounded=0;curved=0;edgeStyle=elbowEdgeStyle;elbow=vertical;exitX=0.5;exitY=0;exitDx=0;exitDy=0;" edge="1" parent="WIyWlLk6GJQsqaUBKTNV-1" source="du9I8prgwWOuaD7i2nQR-21">
          <mxGeometry width="160" relative="1" as="geometry">
            <mxPoint x="470" y="390" as="sourcePoint" />
            <mxPoint x="1480" y="250" as="targetPoint" />
            <Array as="points">
              <mxPoint x="1220" y="340" />
            </Array>
          </mxGeometry>
        </mxCell>
        <mxCell id="du9I8prgwWOuaD7i2nQR-29" value="" style="endArrow=block;endSize=10;endFill=0;shadow=0;strokeWidth=1;rounded=0;curved=0;edgeStyle=elbowEdgeStyle;elbow=vertical;exitX=0.5;exitY=0;exitDx=0;exitDy=0;" edge="1" parent="WIyWlLk6GJQsqaUBKTNV-1" source="du9I8prgwWOuaD7i2nQR-16" target="du9I8prgwWOuaD7i2nQR-9">
          <mxGeometry width="160" relative="1" as="geometry">
            <mxPoint x="470" y="390" as="sourcePoint" />
            <mxPoint x="508" y="238" as="targetPoint" />
            <Array as="points">
              <mxPoint x="650" y="310" />
            </Array>
          </mxGeometry>
        </mxCell>
        <mxCell id="du9I8prgwWOuaD7i2nQR-30" value="" style="endArrow=block;endSize=10;endFill=0;shadow=0;strokeWidth=1;rounded=0;curved=0;edgeStyle=elbowEdgeStyle;elbow=vertical;exitX=0.5;exitY=0;exitDx=0;exitDy=0;" edge="1" parent="WIyWlLk6GJQsqaUBKTNV-1" source="du9I8prgwWOuaD7i2nQR-21">
          <mxGeometry width="160" relative="1" as="geometry">
            <mxPoint x="480" y="400" as="sourcePoint" />
            <mxPoint x="820" y="230" as="targetPoint" />
            <Array as="points">
              <mxPoint x="880" y="340" />
            </Array>
          </mxGeometry>
        </mxCell>
        <mxCell id="du9I8prgwWOuaD7i2nQR-31" value="" style="endArrow=block;endSize=10;endFill=0;shadow=0;strokeWidth=1;rounded=0;curved=0;edgeStyle=elbowEdgeStyle;elbow=vertical;exitX=0.5;exitY=0;exitDx=0;exitDy=0;entryX=0.5;entryY=1.022;entryDx=0;entryDy=0;entryPerimeter=0;" edge="1" parent="WIyWlLk6GJQsqaUBKTNV-1" source="du9I8prgwWOuaD7i2nQR-21" target="du9I8prgwWOuaD7i2nQR-6">
          <mxGeometry width="160" relative="1" as="geometry">
            <mxPoint x="970" y="390" as="sourcePoint" />
            <mxPoint x="830" y="240" as="targetPoint" />
            <Array as="points">
              <mxPoint x="730" y="340" />
            </Array>
          </mxGeometry>
        </mxCell>
      </root>
    </mxGraphModel>
  </diagram>
</mxfile>
